<svg width="19" height="15" viewBox="0 0 19 15" fill="none" xmlns="http://www.w3.org/2000/svg">
<path d="M6.38259 12.0717H18.2085C18.6363 12.0717 18.9831 12.4185 18.9831 12.8463C18.9831 13.2741 18.6363 13.6209 18.2085 13.6209H6.38259C6.10674 14.1316 5.56659 14.4786 4.94539 14.4786C4.3242 14.4786 3.78404 14.1316 3.50819 13.6209H1.477C1.04919 13.6209 0.702393 13.2741 0.702393 12.8463C0.702393 12.4185 1.04919 12.0717 1.477 12.0717H3.50819C3.78404 11.561 4.32419 11.214 4.94539 11.214C5.56659 11.214 6.10674 11.561 6.38259 12.0717Z" fill="white"/>
<path d="M13.3029 8.31579H1.477C1.0492 8.31579 0.702393 7.96899 0.702393 7.54119C0.702393 7.11339 1.0492 6.76658 1.477 6.76658H13.3029C13.5787 6.25585 14.1189 5.90886 14.7401 5.90886C15.3613 5.90886 15.9014 6.25585 16.1773 6.76658H18.2085C18.6363 6.76658 18.9831 7.11339 18.9831 7.54119C18.9831 7.96899 18.6363 8.31579 18.2085 8.31579H16.1773C15.9014 8.82653 15.3613 9.17353 14.7401 9.17353C14.1189 9.17353 13.5787 8.82653 13.3029 8.31579Z" fill="white"/>
<path d="M6.38259 1.4615H18.2085C18.6363 1.4615 18.9831 1.8083 18.9831 2.2361C18.9831 2.66391 18.6363 3.01071 18.2085 3.01071H6.38259C6.10674 3.52144 5.56659 3.86844 4.94539 3.86844C4.3242 3.86844 3.78404 3.52144 3.50819 3.01071H1.477C1.04919 3.01071 0.702393 2.66391 0.702393 2.2361C0.702393 1.8083 1.04919 1.4615 1.477 1.4615H3.50819C3.78404 0.950759 4.32419 0.60376 4.94539 0.60376C5.56659 0.60376 6.10674 0.950759 6.38259 1.4615Z" fill="white"/>
</svg>
